<mxfile host="Electron" modified="2025-01-14T20:27:08.470Z" agent="Mozilla/5.0 (Macintosh; Intel Mac OS X 10.15; rv:133.0) Gecko/20100101 Firefox/133.0" etag="KeuCT-LqRmhvUfZwsthj" version="21.7.4" type="device">
  <diagram name="Page-1" id="3lD6IB1XFYmbkIBg33pZ">
    <mxGraphModel dx="1216" dy="807" grid="1" gridSize="10" guides="1" tooltips="1" connect="1" arrows="1" fold="1" page="1" pageScale="1" pageWidth="850" pageHeight="1100" math="0" shadow="0">
      <root>
        <mxCell id="0" />
        <mxCell id="1" parent="0" />
        <mxCell id="0OPBcHRd1XgiI92XdY3M-2" value="AWS Cloud" style="sketch=0;outlineConnect=0;gradientColor=none;html=1;whiteSpace=wrap;fontSize=12;fontStyle=0;shape=mxgraph.aws4.group;grIcon=mxgraph.aws4.group_aws_cloud;strokeColor=#AAB7B8;fillColor=none;verticalAlign=top;align=left;spacingLeft=30;fontColor=#AAB7B8;dashed=0;" vertex="1" parent="1">
          <mxGeometry x="310" y="350" width="900" height="310" as="geometry" />
        </mxCell>
        <mxCell id="0OPBcHRd1XgiI92XdY3M-3" value="VPC" style="points=[[0,0],[0.25,0],[0.5,0],[0.75,0],[1,0],[1,0.25],[1,0.5],[1,0.75],[1,1],[0.75,1],[0.5,1],[0.25,1],[0,1],[0,0.75],[0,0.5],[0,0.25]];outlineConnect=0;gradientColor=none;html=1;whiteSpace=wrap;fontSize=12;fontStyle=0;container=1;pointerEvents=0;collapsible=0;recursiveResize=0;shape=mxgraph.aws4.group;grIcon=mxgraph.aws4.group_vpc;strokeColor=#248814;fillColor=none;verticalAlign=top;align=left;spacingLeft=30;fontColor=#AAB7B8;dashed=0;" vertex="1" parent="1">
          <mxGeometry x="340" y="380" width="710" height="270" as="geometry" />
        </mxCell>
        <mxCell id="0OPBcHRd1XgiI92XdY3M-5" value="Public Subnet" style="sketch=0;outlineConnect=0;gradientColor=none;html=1;whiteSpace=wrap;fontSize=12;fontStyle=0;shape=mxgraph.aws4.group;grIcon=mxgraph.aws4.group_subnet;strokeColor=#879196;fillColor=none;verticalAlign=top;align=left;spacingLeft=30;fontColor=#879196;dashed=0;" vertex="1" parent="1">
          <mxGeometry x="413" y="400" width="130" height="230" as="geometry" />
        </mxCell>
        <mxCell id="0OPBcHRd1XgiI92XdY3M-8" value="Private Subnet" style="sketch=0;outlineConnect=0;gradientColor=none;html=1;whiteSpace=wrap;fontSize=12;fontStyle=0;shape=mxgraph.aws4.group;grIcon=mxgraph.aws4.group_subnet;strokeColor=#879196;fillColor=none;verticalAlign=top;align=left;spacingLeft=30;fontColor=#879196;dashed=0;" vertex="1" parent="1">
          <mxGeometry x="570" y="400" width="460" height="230" as="geometry" />
        </mxCell>
        <mxCell id="0OPBcHRd1XgiI92XdY3M-9" value="Amazon EKS&lt;br&gt;Control Plane" style="sketch=0;outlineConnect=0;fontColor=#232F3E;gradientColor=none;strokeColor=#ffffff;fillColor=#232F3E;dashed=0;verticalLabelPosition=middle;verticalAlign=bottom;align=center;html=1;whiteSpace=wrap;fontSize=10;fontStyle=1;spacing=3;shape=mxgraph.aws4.productIcon;prIcon=mxgraph.aws4.eks;" vertex="1" parent="1">
          <mxGeometry x="1088" y="415" width="80" height="110" as="geometry" />
        </mxCell>
        <mxCell id="0OPBcHRd1XgiI92XdY3M-12" value="EKS Node Group&lt;br&gt;System" style="points=[[0,0],[0.25,0],[0.5,0],[0.75,0],[1,0],[1,0.25],[1,0.5],[1,0.75],[1,1],[0.75,1],[0.5,1],[0.25,1],[0,1],[0,0.75],[0,0.5],[0,0.25]];outlineConnect=0;gradientColor=none;html=1;whiteSpace=wrap;fontSize=12;fontStyle=0;container=1;pointerEvents=0;collapsible=0;recursiveResize=0;shape=mxgraph.aws4.groupCenter;grIcon=mxgraph.aws4.group_auto_scaling_group;grStroke=1;strokeColor=#D86613;fillColor=none;verticalAlign=top;align=center;fontColor=#D86613;dashed=1;spacingTop=25;" vertex="1" parent="1">
          <mxGeometry x="610" y="450" width="100" height="170" as="geometry" />
        </mxCell>
        <mxCell id="0OPBcHRd1XgiI92XdY3M-32" value="System Node" style="verticalLabelPosition=bottom;html=1;verticalAlign=top;strokeWidth=1;align=center;outlineConnect=0;dashed=0;outlineConnect=0;shape=mxgraph.aws3d.application_server;fillColor=#ECECEC;strokeColor=#5E5E5E;aspect=fixed;" vertex="1" parent="0OPBcHRd1XgiI92XdY3M-12">
          <mxGeometry x="18.5" y="78" width="63" height="63.51" as="geometry" />
        </mxCell>
        <mxCell id="0OPBcHRd1XgiI92XdY3M-17" value="EKS Node Group&lt;br&gt;Worker" style="points=[[0,0],[0.25,0],[0.5,0],[0.75,0],[1,0],[1,0.25],[1,0.5],[1,0.75],[1,1],[0.75,1],[0.5,1],[0.25,1],[0,1],[0,0.75],[0,0.5],[0,0.25]];outlineConnect=0;gradientColor=none;html=1;whiteSpace=wrap;fontSize=12;fontStyle=0;container=1;pointerEvents=0;collapsible=0;recursiveResize=0;shape=mxgraph.aws4.groupCenter;grIcon=mxgraph.aws4.group_auto_scaling_group;grStroke=1;strokeColor=#D86613;fillColor=none;verticalAlign=top;align=center;fontColor=#D86613;dashed=1;spacingTop=25;" vertex="1" parent="1">
          <mxGeometry x="720" y="450" width="100" height="170" as="geometry" />
        </mxCell>
        <mxCell id="0OPBcHRd1XgiI92XdY3M-76" value="NVME" style="verticalLabelPosition=bottom;html=1;verticalAlign=top;strokeWidth=1;align=center;outlineConnect=0;dashed=0;outlineConnect=0;shape=mxgraph.aws3d.application_server;fillColor=#ECECEC;strokeColor=#5E5E5E;aspect=fixed;" vertex="1" parent="0OPBcHRd1XgiI92XdY3M-17">
          <mxGeometry x="18.5" y="78" width="63" height="63.51" as="geometry" />
        </mxCell>
        <mxCell id="0OPBcHRd1XgiI92XdY3M-26" value="EKS Node Group&lt;br&gt;NVME" style="points=[[0,0],[0.25,0],[0.5,0],[0.75,0],[1,0],[1,0.25],[1,0.5],[1,0.75],[1,1],[0.75,1],[0.5,1],[0.25,1],[0,1],[0,0.75],[0,0.5],[0,0.25]];outlineConnect=0;gradientColor=none;html=1;whiteSpace=wrap;fontSize=12;fontStyle=0;container=1;pointerEvents=0;collapsible=0;recursiveResize=0;shape=mxgraph.aws4.groupCenter;grIcon=mxgraph.aws4.group_auto_scaling_group;grStroke=1;strokeColor=#D86613;fillColor=none;verticalAlign=top;align=center;fontColor=#D86613;dashed=1;spacingTop=25;" vertex="1" parent="1">
          <mxGeometry x="830" y="450" width="100" height="170" as="geometry" />
        </mxCell>
        <mxCell id="0OPBcHRd1XgiI92XdY3M-34" value="NVME" style="verticalLabelPosition=bottom;html=1;verticalAlign=top;strokeWidth=1;align=center;outlineConnect=0;dashed=0;outlineConnect=0;shape=mxgraph.aws3d.application_server;fillColor=#ECECEC;strokeColor=#5E5E5E;aspect=fixed;" vertex="1" parent="0OPBcHRd1XgiI92XdY3M-26">
          <mxGeometry x="18.5" y="78" width="63" height="63.51" as="geometry" />
        </mxCell>
        <mxCell id="0OPBcHRd1XgiI92XdY3M-28" value="ScyllaDB " style="sketch=0;points=[[0,0,0],[0.25,0,0],[0.5,0,0],[0.75,0,0],[1,0,0],[0,1,0],[0.25,1,0],[0.5,1,0],[0.75,1,0],[1,1,0],[0,0.25,0],[0,0.5,0],[0,0.75,0],[1,0.25,0],[1,0.5,0],[1,0.75,0]];outlineConnect=0;fontColor=#232F3E;fillColor=#ED7100;strokeColor=#ffffff;dashed=0;verticalLabelPosition=bottom;verticalAlign=top;align=center;html=1;fontSize=12;fontStyle=0;aspect=fixed;shape=mxgraph.aws4.resourceIcon;resIcon=mxgraph.aws4.ec2;" vertex="1" parent="1">
          <mxGeometry x="940" y="450" width="78" height="78" as="geometry" />
        </mxCell>
        <mxCell id="0OPBcHRd1XgiI92XdY3M-30" value="Unreal Cloud DDC Bucket" style="sketch=0;points=[[0,0,0],[0.25,0,0],[0.5,0,0],[0.75,0,0],[1,0,0],[0,1,0],[0.25,1,0],[0.5,1,0],[0.75,1,0],[1,1,0],[0,0.25,0],[0,0.5,0],[0,0.75,0],[1,0.25,0],[1,0.5,0],[1,0.75,0]];outlineConnect=0;fontColor=#232F3E;fillColor=#7AA116;strokeColor=#ffffff;dashed=0;verticalLabelPosition=bottom;verticalAlign=top;align=center;html=1;fontSize=12;fontStyle=0;aspect=fixed;shape=mxgraph.aws4.resourceIcon;resIcon=mxgraph.aws4.s3;" vertex="1" parent="1">
          <mxGeometry x="1091" y="544" width="78" height="78" as="geometry" />
        </mxCell>
        <mxCell id="0OPBcHRd1XgiI92XdY3M-42" value="" style="endArrow=classic;startArrow=classic;html=1;rounded=0;" edge="1" parent="1">
          <mxGeometry width="50" height="50" relative="1" as="geometry">
            <mxPoint x="659" y="446" as="sourcePoint" />
            <mxPoint x="1080" y="426" as="targetPoint" />
            <Array as="points">
              <mxPoint x="659" y="426" />
              <mxPoint x="849" y="426" />
              <mxPoint x="979" y="426" />
            </Array>
          </mxGeometry>
        </mxCell>
        <mxCell id="0OPBcHRd1XgiI92XdY3M-44" value="" style="endArrow=classic;html=1;rounded=0;" edge="1" parent="1">
          <mxGeometry width="50" height="50" relative="1" as="geometry">
            <mxPoint x="880" y="426" as="sourcePoint" />
            <mxPoint x="880" y="446" as="targetPoint" />
          </mxGeometry>
        </mxCell>
        <mxCell id="0OPBcHRd1XgiI92XdY3M-45" value="" style="endArrow=classic;startArrow=classic;html=1;rounded=0;" edge="1" parent="1">
          <mxGeometry width="50" height="50" relative="1" as="geometry">
            <mxPoint x="920" y="570" as="sourcePoint" />
            <mxPoint x="990" y="550" as="targetPoint" />
            <Array as="points">
              <mxPoint x="990" y="570" />
            </Array>
          </mxGeometry>
        </mxCell>
        <mxCell id="0OPBcHRd1XgiI92XdY3M-65" value="" style="endArrow=classic;startArrow=classic;html=1;rounded=0;" edge="1" parent="1">
          <mxGeometry width="50" height="50" relative="1" as="geometry">
            <mxPoint x="1080" y="600" as="sourcePoint" />
            <mxPoint x="920" y="600" as="targetPoint" />
            <Array as="points">
              <mxPoint x="1040" y="600" />
              <mxPoint x="960" y="600" />
            </Array>
          </mxGeometry>
        </mxCell>
        <mxCell id="0OPBcHRd1XgiI92XdY3M-78" value="" style="endArrow=classic;html=1;rounded=0;" edge="1" parent="1">
          <mxGeometry width="50" height="50" relative="1" as="geometry">
            <mxPoint x="771" y="427" as="sourcePoint" />
            <mxPoint x="771" y="447" as="targetPoint" />
          </mxGeometry>
        </mxCell>
      </root>
    </mxGraphModel>
  </diagram>
</mxfile>
